<svg width="169" height="168" viewBox="0 0 169 168" fill="none" xmlns="http://www.w3.org/2000/svg">
<path fill-rule="evenodd" clip-rule="evenodd" d="M42.7406 44.5314C26.8725 47.421 14.0675 60.1305 10.8154 76.2183C6.30785 98.5153 20.9654 120.396 43.0047 124.27C47.0382 124.979 70.6882 125.031 72.3378 124.334C78.8155 121.598 78.8155 111.819 72.3378 109.083C71.5175 108.736 68.8694 108.628 61.1504 108.623C46.1961 108.614 42.4704 107.968 37.2606 104.476C20.8461 93.4755 23.7597 68.5956 42.2593 61.7895C45.8773 60.4584 49.2427 60.1658 61.0563 60.155L71.0747 60.146L72.7977 59.1498C78.2833 55.9787 78.2833 48.1673 72.7977 44.9963L71.0747 44.0001L58.2176 44.0268C48.6775 44.047 44.6847 44.1772 42.7406 44.5314Z" fill="black"/>
<path fill-rule="evenodd" clip-rule="evenodd" d="M126.259 124.299C142.128 121.409 154.932 108.7 158.185 92.6119C162.692 70.3148 148.035 48.434 125.995 44.5597C121.962 43.8509 98.3118 43.7996 96.6622 44.4959C90.1845 47.2326 90.1845 57.0107 96.6622 59.7473C97.4825 60.0938 100.131 60.2024 107.85 60.2071C122.804 60.2157 126.53 60.8625 131.739 64.3541C148.154 75.3546 145.24 100.235 126.741 107.041C123.123 108.372 119.757 108.664 107.944 108.675L97.9253 108.684L96.2023 109.68C90.7167 112.851 90.7167 120.663 96.2023 123.834L97.9253 124.83L110.782 124.803C120.322 124.783 124.315 124.653 126.259 124.299Z" fill="black"/>
</svg>
