<svg width="713" height="480" viewBox="0 0 713 480" fill="none" xmlns="http://www.w3.org/2000/svg">
<path fill-rule="evenodd" clip-rule="evenodd" d="M595.741 0.531363C579.872 3.421 567.068 16.1305 563.815 32.2183C559.308 54.5153 573.965 76.3962 596.005 80.2704C600.038 80.9793 623.688 81.0305 625.338 80.3342C631.816 77.5975 631.816 67.8195 625.338 65.0828C624.518 64.7364 621.869 64.6278 614.15 64.623C599.196 64.6144 595.47 63.9676 590.261 60.476C573.846 49.4755 576.76 24.5956 595.259 17.7895C598.877 16.4584 602.243 16.1658 614.056 16.155L624.075 16.146L625.798 15.1498C631.283 11.9787 631.283 4.16733 625.798 0.996309L624.075 5.91278e-05L611.218 0.0267769C601.678 0.0470293 597.685 0.177161 595.741 0.531363Z" fill="black"/>
<path fill-rule="evenodd" clip-rule="evenodd" d="M679.259 80.2988C695.128 77.4091 707.932 64.6996 711.185 48.6119C715.692 26.3148 701.035 4.43395 678.995 0.559697C674.962 -0.149138 651.312 -0.200405 649.662 0.495935C643.184 3.2326 643.184 13.0106 649.662 15.7473C650.482 16.0938 653.131 16.2024 660.85 16.2071C675.804 16.2157 679.53 16.8625 684.739 20.3541C701.154 31.3546 698.24 56.2346 679.741 63.0407C676.123 64.3717 672.757 64.6643 660.944 64.6751L650.925 64.6841L649.202 65.6804C643.717 68.8514 643.717 76.6628 649.202 79.8338L650.925 80.8301L663.782 80.8034C673.322 80.7831 677.315 80.653 679.259 80.2988Z" fill="black"/>
<path d="M30.1326 92V1.48066H88.0774V15.1823H46.3978V39.8453H84.0553V53.5028H46.3978V92H30.1326ZM99.6312 92V24.1105H115.101V35.4254H115.808C116.604 32.8619 117.826 30.6519 119.477 28.7956C121.127 26.9098 123.071 25.4954 125.311 24.5525C127.55 23.6096 129.966 23.1381 132.559 23.1381C133.502 23.1381 134.489 23.1823 135.521 23.2707C136.552 23.3296 137.495 23.4328 138.349 23.5801V38.2099C137.495 37.9742 136.36 37.768 134.946 37.5912C133.532 37.3849 132.191 37.2818 130.924 37.2818C128.007 37.2818 125.384 37.9153 123.057 39.1823C120.729 40.4199 118.902 42.1584 117.576 44.3978C116.25 46.6372 115.587 49.1713 115.587 52V92H99.6312ZM175.186 93.326C168.468 93.326 162.619 91.9116 157.64 89.0829C152.66 86.2541 148.844 82.2026 146.192 76.9282C143.54 71.6538 142.214 65.4954 142.214 58.453C142.214 51.5285 143.54 45.3996 146.192 40.0663C148.873 34.733 152.645 30.593 157.507 27.6464C162.369 24.6998 167.982 23.2265 174.347 23.2265C180.122 23.2265 185.352 24.4641 190.037 26.9392C194.722 29.4144 198.45 33.2155 201.22 38.3425C203.989 43.4696 205.374 49.8637 205.374 57.5249V62.4309H149.728V51.6464H190.081C190.052 48.5819 189.389 45.8416 188.093 43.4254C186.796 41.0092 184.984 39.1087 182.656 37.7238C180.328 36.3389 177.647 35.6464 174.612 35.6464C171.371 35.6464 168.498 36.4125 165.993 37.9447C163.488 39.477 161.529 41.5543 160.115 44.1768C158.73 46.7698 158.037 49.5985 158.037 52.663V61.9447C158.037 65.8932 158.744 69.2965 160.159 72.1547C161.603 74.9834 163.621 77.1639 166.214 78.6961C168.837 80.1989 171.901 80.9503 175.407 80.9503C177.647 80.9503 179.665 80.6556 181.463 80.0663C183.29 79.4475 184.851 78.6077 186.148 77.547C187.444 76.4567 188.446 75.2192 189.153 73.8343H204.711C203.739 77.7532 201.927 81.186 199.275 84.1326C196.623 87.0497 193.234 89.3186 189.109 90.9392C185.013 92.5304 180.372 93.326 175.186 93.326ZM247.311 93.326C240.593 93.326 234.744 91.9116 229.765 89.0829C224.785 86.2541 220.969 82.2026 218.317 76.9282C215.665 71.6538 214.339 65.4954 214.339 58.453C214.339 51.5285 215.665 45.3996 218.317 40.0663C220.998 34.733 224.77 30.593 229.632 27.6464C234.494 24.6998 240.107 23.2265 246.472 23.2265C252.247 23.2265 257.477 24.4641 262.162 26.9392C266.847 29.4144 270.575 33.2155 273.345 38.3425C276.114 43.4696 277.499 49.8637 277.499 57.5249V62.4309H221.853V51.6464H262.206C262.177 48.5819 261.514 45.8416 260.218 43.4254C258.921 41.0092 257.109 39.1087 254.781 37.7238C252.453 36.3389 249.772 35.6464 246.737 35.6464C243.496 35.6464 240.623 36.4125 238.118 37.9447C235.613 39.477 233.654 41.5543 232.24 44.1768C230.855 46.7698 230.162 49.5985 230.162 52.663V61.9447C230.162 65.8932 230.869 69.2965 232.284 72.1547C233.728 74.9834 235.746 77.1639 238.339 78.6961C240.962 80.1989 244.026 80.9503 247.532 80.9503C249.772 80.9503 251.79 80.6556 253.588 80.0663C255.415 79.4475 256.976 78.6077 258.273 77.547C259.569 76.4567 260.571 75.2192 261.278 73.8343H276.836C275.864 77.7532 274.052 81.186 271.4 84.1326C268.748 87.0497 265.359 89.3186 261.234 90.9392C257.138 92.5304 252.497 93.326 247.311 93.326ZM41.5359 184H24.1657L56.0774 93.4807H76.1437L108.055 184H90.6851L66.4641 111.956H65.7569L41.5359 184ZM42.1989 148.508H89.9337V161.591H42.1989V148.508ZM155.128 135.47C154.628 132.847 153.331 130.799 151.239 129.326C149.176 127.823 146.48 127.072 143.151 127.072C140.911 127.072 138.893 127.425 137.095 128.133C135.298 128.84 133.884 129.797 132.852 131.006C131.85 132.214 131.349 133.569 131.349 135.072C131.349 136.899 132.116 138.46 133.648 139.757C135.209 141.024 137.67 142.055 141.029 142.851L152.565 145.326C158.988 146.711 163.762 148.921 166.885 151.956C170.038 154.961 171.615 158.88 171.615 163.713C171.615 167.956 170.421 171.713 168.035 174.983C165.677 178.254 162.318 180.803 157.957 182.63C153.626 184.427 148.543 185.326 142.709 185.326C136.992 185.326 132.042 184.516 127.858 182.895C123.703 181.245 120.418 178.888 118.001 175.823C115.585 172.729 114.112 169.017 113.581 164.685H129.714C130.215 167.543 131.556 169.694 133.736 171.138C135.946 172.582 138.922 173.304 142.664 173.304C145.198 173.304 147.423 172.98 149.338 172.331C151.254 171.654 152.742 170.696 153.802 169.459C154.863 168.221 155.394 166.777 155.394 165.127C155.394 163.153 154.583 161.532 152.963 160.265C151.372 158.969 148.896 157.952 145.537 157.215L134.62 154.917C128.344 153.621 123.585 151.366 120.344 148.155C117.103 144.913 115.497 140.862 115.526 136C115.497 131.875 116.616 128.236 118.885 125.083C121.154 121.93 124.351 119.499 128.477 117.79C132.631 116.081 137.449 115.227 142.93 115.227C148.263 115.227 152.919 116.052 156.896 117.702C160.874 119.352 163.998 121.694 166.267 124.729C168.535 127.764 169.861 131.344 170.244 135.47H155.128ZM221.753 135.47C221.253 132.847 219.956 130.799 217.864 129.326C215.801 127.823 213.105 127.072 209.776 127.072C207.536 127.072 205.518 127.425 203.72 128.133C201.923 128.84 200.509 129.797 199.477 131.006C198.475 132.214 197.974 133.569 197.974 135.072C197.974 136.899 198.741 138.46 200.273 139.757C201.834 141.024 204.295 142.055 207.654 142.851L219.19 145.326C225.613 146.711 230.387 148.921 233.51 151.956C236.663 154.961 238.24 158.88 238.24 163.713C238.24 167.956 237.046 171.713 234.66 174.983C232.302 178.254 228.943 180.803 224.582 182.63C220.251 184.427 215.168 185.326 209.334 185.326C203.617 185.326 198.667 184.516 194.483 182.895C190.328 181.245 187.043 178.888 184.626 175.823C182.21 172.729 180.737 169.017 180.206 164.685H196.339C196.84 167.543 198.181 169.694 200.361 171.138C202.571 172.582 205.547 173.304 209.289 173.304C211.823 173.304 214.048 172.98 215.963 172.331C217.879 171.654 219.367 170.696 220.427 169.459C221.488 168.221 222.019 166.777 222.019 165.127C222.019 163.153 221.208 161.532 219.588 160.265C217.997 158.969 215.521 157.952 212.162 157.215L201.245 154.917C194.969 153.621 190.21 151.366 186.969 148.155C183.728 144.913 182.122 140.862 182.151 136C182.122 131.875 183.241 128.236 185.51 125.083C187.779 121.93 190.976 119.499 195.102 117.79C199.256 116.081 204.074 115.227 209.555 115.227C214.888 115.227 219.544 116.052 223.521 117.702C227.499 119.352 230.623 121.694 232.892 124.729C235.16 127.764 236.486 131.344 236.869 135.47H221.753ZM279.539 185.326C272.997 185.326 267.266 183.867 262.345 180.95C257.454 178.033 253.668 173.937 250.986 168.663C248.305 163.389 246.964 157.274 246.964 150.32C246.964 143.366 248.305 137.238 250.986 131.934C253.668 126.63 257.454 122.519 262.345 119.602C267.266 116.685 272.997 115.227 279.539 115.227C286.051 115.227 291.767 116.685 296.688 119.602C301.609 122.519 305.395 126.63 308.047 131.934C310.699 137.238 312.025 143.366 312.025 150.32C312.025 157.274 310.699 163.389 308.047 168.663C305.395 173.937 301.609 178.033 296.688 180.95C291.767 183.867 286.051 185.326 279.539 185.326ZM279.583 172.597C283.089 172.597 286.065 171.624 288.511 169.68C290.957 167.705 292.798 165.039 294.036 161.68C295.273 158.291 295.892 154.49 295.892 150.276C295.892 146.033 295.273 142.217 294.036 138.829C292.798 135.44 290.957 132.759 288.511 130.785C286.065 128.81 283.089 127.823 279.583 127.823C276.017 127.823 272.997 128.81 270.522 130.785C268.047 132.759 266.191 135.44 264.953 138.829C263.715 142.217 263.097 146.033 263.097 150.276C263.097 154.519 263.715 158.32 264.953 161.68C266.191 165.039 268.047 167.705 270.522 169.68C272.997 171.624 276.017 172.597 279.583 172.597ZM353.539 185.326C346.879 185.326 341.089 183.853 336.169 180.906C331.277 177.959 327.52 173.849 324.898 168.575C322.275 163.271 320.964 157.186 320.964 150.32C320.964 143.455 322.29 137.37 324.942 132.066C327.594 126.733 331.366 122.593 336.257 119.646C341.178 116.7 346.894 115.227 353.406 115.227C358.857 115.227 363.719 116.228 367.992 118.232C372.294 120.236 375.697 123.079 378.202 126.762C380.736 130.446 382.18 134.703 382.533 139.536H367.329C366.916 137.326 366.106 135.366 364.898 133.657C363.69 131.919 362.128 130.549 360.213 129.547C358.327 128.545 356.146 128.044 353.671 128.044C350.342 128.044 347.424 128.928 344.92 130.696C342.445 132.464 340.515 135.013 339.13 138.343C337.774 141.643 337.097 145.547 337.097 150.055C337.097 154.652 337.774 158.63 339.13 161.989C340.485 165.319 342.401 167.882 344.876 169.68C347.38 171.448 350.312 172.331 353.671 172.331C355.999 172.331 358.106 171.89 359.992 171.006C361.907 170.092 363.483 168.781 364.721 167.072C365.988 165.363 366.857 163.3 367.329 160.884H382.533C382.15 165.687 380.721 169.93 378.246 173.613C375.8 177.297 372.456 180.169 368.213 182.232C363.999 184.295 359.108 185.326 353.539 185.326ZM394.006 184V116.11H409.962V184H394.006ZM402.006 106.431C400.356 106.431 398.809 106.048 397.365 105.282C395.951 104.486 394.831 103.44 394.006 102.144C393.181 100.818 392.769 99.3738 392.769 97.8121C392.769 96.221 393.181 94.7772 394.006 93.4807C394.831 92.1547 395.951 91.1087 397.365 90.3425C398.809 89.547 400.356 89.1492 402.006 89.1492C403.656 89.1492 405.189 89.547 406.603 90.3425C408.017 91.1087 409.137 92.1547 409.962 93.4807C410.817 94.7772 411.244 96.221 411.244 97.8121C411.244 99.3738 410.817 100.818 409.962 102.144C409.137 103.44 408.017 104.486 406.603 105.282C405.189 106.048 403.656 106.431 402.006 106.431ZM465.198 153.989C464.874 154.018 464.329 154.063 463.563 154.122C462.826 154.151 461.927 154.195 460.867 154.254C458.804 154.372 456.712 154.505 454.59 154.652C452.469 154.799 450.716 154.932 449.331 155.05C445.441 155.344 442.406 156.302 440.226 157.923C438.075 159.543 436.999 161.812 436.999 164.729C436.999 166.645 437.485 168.265 438.458 169.591C439.43 170.917 440.771 171.934 442.48 172.641C444.218 173.319 446.207 173.657 448.447 173.657C451.6 173.657 454.369 173.024 456.756 171.757C459.172 170.49 461.029 168.796 462.325 166.674C463.651 164.523 464.314 162.18 464.314 159.646L464.226 137.945C464.226 135.705 463.754 133.805 462.811 132.243C461.869 130.652 460.469 129.444 458.613 128.619C456.786 127.794 454.561 127.381 451.939 127.381C449.611 127.381 447.563 127.72 445.795 128.398C444.056 129.046 442.627 129.974 441.508 131.182C440.417 132.39 439.666 133.82 439.253 135.47H423.872C424.255 131.58 425.625 128.118 427.983 125.083C430.369 122.018 433.64 119.617 437.795 117.878C441.979 116.11 446.841 115.227 452.381 115.227C457.183 115.227 461.648 115.963 465.773 117.436C469.927 118.91 473.346 121.4 476.027 124.906C478.738 128.383 480.093 132.95 480.093 138.608V184H464.845V174.674H464.314C463.253 176.707 461.839 178.534 460.071 180.155C458.303 181.746 456.093 183.013 453.441 183.956C450.789 184.899 447.754 185.37 444.336 185.37C439.975 185.37 436.071 184.589 432.624 183.028C429.206 181.466 426.509 179.153 424.535 176.088C422.561 172.994 421.574 169.282 421.574 164.95C421.574 157.937 423.931 152.884 428.646 149.79C433.36 146.667 439.445 144.84 446.9 144.309C448.845 144.192 451.202 144.059 453.972 143.912C456.771 143.764 459.349 143.632 461.706 143.514C462.532 143.484 463.224 143.455 463.784 143.425C464.373 143.396 464.786 143.381 465.021 143.381L465.198 153.989ZM528.399 116.11V128.398H489.504V116.11H528.399ZM499.184 99.8453H515.095V163.58C515.095 165.643 515.405 167.249 516.023 168.398C516.642 169.547 517.482 170.357 518.543 170.829C519.604 171.271 520.885 171.506 522.388 171.536C523.095 171.536 523.95 171.521 524.952 171.492C525.954 171.433 526.941 171.374 527.913 171.315C528.178 171.285 528.429 171.271 528.664 171.271C528.9 171.271 529.136 171.256 529.372 171.227V184.265C526.72 184.707 523.714 184.928 520.355 184.928C516.259 184.928 512.605 184.25 509.394 182.895C506.211 181.51 503.707 179.418 501.88 176.619C500.053 173.82 499.154 170.357 499.184 166.232V99.8453ZM540.131 184V116.11H556.087V184H540.131ZM548.131 106.431C546.481 106.431 544.934 106.048 543.49 105.282C542.076 104.486 540.956 103.44 540.131 102.144C539.306 100.818 538.894 99.3738 538.894 97.8121C538.894 96.221 539.306 94.7772 540.131 93.4807C540.956 92.1547 542.076 91.1087 543.49 90.3425C544.934 89.547 546.481 89.1492 548.131 89.1492C549.781 89.1492 551.314 89.547 552.728 90.3425C554.142 91.1087 555.262 92.1547 556.087 93.4807C556.942 94.7772 557.369 96.221 557.369 97.8121C557.369 99.3738 556.942 100.818 556.087 102.144C555.262 103.44 554.142 104.486 552.728 105.282C551.314 106.048 549.781 106.431 548.131 106.431ZM600.539 185.326C593.997 185.326 588.266 183.867 583.345 180.95C578.454 178.033 574.668 173.937 571.986 168.663C569.305 163.389 567.964 157.274 567.964 150.32C567.964 143.366 569.305 137.238 571.986 131.934C574.668 126.63 578.454 122.519 583.345 119.602C588.266 116.685 593.997 115.227 600.539 115.227C607.051 115.227 612.767 116.685 617.688 119.602C622.609 122.519 626.395 126.63 629.047 131.934C631.699 137.238 633.025 143.366 633.025 150.32C633.025 157.274 631.699 163.389 629.047 168.663C626.395 173.937 622.609 178.033 617.688 180.95C612.767 183.867 607.051 185.326 600.539 185.326ZM600.583 172.597C604.089 172.597 607.065 171.624 609.511 169.68C611.957 167.705 613.798 165.039 615.036 161.68C616.273 158.291 616.892 154.49 616.892 150.276C616.892 146.033 616.273 142.217 615.036 138.829C613.798 135.44 611.957 132.759 609.511 130.785C607.065 128.81 604.089 127.823 600.583 127.823C597.017 127.823 593.997 128.81 591.522 130.785C589.047 132.759 587.191 135.44 585.953 138.829C584.715 142.217 584.097 146.033 584.097 150.276C584.097 154.519 584.715 158.32 585.953 161.68C587.191 165.039 589.047 167.705 591.522 169.68C593.997 171.624 597.017 172.597 600.583 172.597ZM660.837 144.221V184H644.881V116.11H660.13V127.646H660.97C662.001 125.083 663.459 122.888 665.345 121.061C667.231 119.204 669.5 117.775 672.152 116.773C674.833 115.742 677.839 115.227 681.169 115.227C685.824 115.227 689.905 116.243 693.412 118.276C696.918 120.28 699.629 123.197 701.544 127.028C703.459 130.858 704.417 135.44 704.417 140.773V184H688.461V143.204C688.461 140.199 687.931 137.606 686.87 135.425C685.839 133.245 684.321 131.58 682.318 130.431C680.343 129.282 677.986 128.707 675.246 128.707C672.417 128.707 669.913 129.326 667.732 130.564C665.581 131.772 663.887 133.554 662.649 135.912C661.441 138.239 660.837 141.009 660.837 144.221Z" fill="black"/>
<path d="M63.6021 351.752L64.5745 333.807L49.5468 343.708L44.1988 334.338L60.2872 326.293L44.1988 318.249L49.5468 308.879L64.5745 318.78L63.6021 300.835H74.3425L73.3701 318.78L88.3978 308.879L93.7458 318.249L77.6574 326.293L93.7458 334.338L88.3978 343.708L73.3701 333.807L74.3425 351.752H63.6021Z" fill="black"/>
<path d="M63.6021 402.669L64.5745 384.724L49.5468 394.625L44.1988 385.255L60.2872 377.211L44.1988 369.166L49.5468 359.796L64.5745 369.697L63.6021 351.752H74.3425L73.3701 369.697L88.3978 359.796L93.7458 369.166L77.6574 377.211L93.7458 385.255L88.3978 394.625L73.3701 384.724L74.3425 402.669H63.6021Z" fill="black"/>
<path d="M19.4033 377.211L20.3757 359.266L5.34807 369.166L0 359.796L16.0884 351.752L0 343.708L5.34807 334.338L20.3757 344.238L19.4033 326.293H30.1437L29.1713 344.238L44.1988 334.338L49.5468 343.708L33.4586 351.752L49.5468 359.796L44.1988 369.166L29.1713 359.266L30.1437 377.211H19.4033Z" fill="black"/>
<path d="M107.801 275.376L108.773 257.432L93.7456 267.332L88.3975 257.962L104.486 249.918L88.3975 241.874L93.7456 232.503L108.773 242.404L107.801 224.459H118.541L117.569 242.404L132.596 232.503L137.945 241.874L121.856 249.918L137.945 257.962L132.596 267.332L117.569 257.432L118.541 275.376H107.801Z" fill="black"/>
<path d="M107.801 326.294L108.773 308.349L93.7458 318.249L88.3978 308.879L104.486 300.835L88.3975 292.791L93.7456 283.421L108.773 293.321L107.801 275.376H118.541L117.569 293.321L132.596 283.421L137.945 292.791L121.856 300.835L137.945 308.879L132.596 318.249L117.569 308.349L118.541 326.294H107.801Z" fill="black"/>
<path d="M63.6021 300.835L64.5744 282.89L49.5468 292.791L44.1988 283.421L60.2871 275.376L44.1988 267.332L49.5468 257.962L64.5744 267.863L63.6021 249.918H74.3424L73.37 267.863L88.3975 257.962L93.7456 267.332L77.6573 275.376L93.7456 283.421L88.3975 292.791L73.37 282.89L74.3425 300.835H63.6021Z" fill="black"/>
<path d="M107.801 428.128L108.773 410.183L93.7456 420.083L88.3975 410.713L104.486 402.669L88.3978 394.625L93.7458 385.255L108.773 395.155L107.801 377.211H118.541L117.569 395.155L132.596 385.255L137.945 394.625L121.856 402.669L137.945 410.713L132.596 420.083L117.569 410.183L118.541 428.128H107.801Z" fill="black"/>
<path d="M107.801 479.045L108.773 461.1L93.7456 471.001L88.3975 461.63L104.486 453.586L88.3975 445.542L93.7456 436.172L108.773 446.073L107.801 428.128H118.541L117.569 446.073L132.596 436.172L137.945 445.542L121.856 453.586L137.945 461.63L132.596 471.001L117.569 461.1L118.541 479.045H107.801Z" fill="black"/>
<path d="M63.6021 453.586L64.5744 435.642L49.5468 445.542L44.1988 436.172L60.2871 428.128L44.1988 420.083L49.5468 410.713L64.5744 420.614L63.6021 402.669H74.3425L73.37 420.614L88.3975 410.713L93.7456 420.083L77.6573 428.128L93.7456 436.172L88.3975 445.542L73.37 435.642L74.3424 453.586H63.6021Z" fill="black"/>
<path d="M152 351.752L152.972 333.807L137.944 343.708L132.596 334.338L148.685 326.294L132.596 318.249L137.945 308.879L152.972 318.78L152 300.835H162.74L161.768 318.78L176.795 308.879L182.143 318.249L166.055 326.294L182.143 334.338L176.795 343.708L161.768 333.807L162.74 351.752H152Z" fill="black"/>
<path d="M152 402.669L152.972 384.724L137.945 394.625L132.596 385.255L148.685 377.211L132.596 369.166L137.944 359.796L152.972 369.697L152 351.752H162.74L161.768 369.697L176.795 359.796L182.143 369.166L166.055 377.211L182.143 385.255L176.795 394.625L161.768 384.724L162.74 402.669H152Z" fill="black"/>
<path d="M107.801 377.211L108.773 359.266L93.7458 369.166L88.3978 359.796L104.486 351.752L88.3978 343.708L93.7458 334.338L108.773 344.238L107.801 326.294H118.541L117.569 344.238L132.596 334.338L137.944 343.708L121.856 351.752L137.944 359.796L132.596 369.166L117.569 359.266L118.541 377.211H107.801Z" fill="black"/>
<path d="M240.397 351.752L241.37 333.807L226.342 343.708L220.994 334.338L237.082 326.293L220.994 318.249L226.342 308.879L241.37 318.78L240.397 300.835H251.138L250.165 318.78L265.193 308.879L270.541 318.249L254.453 326.293L270.541 334.338L265.193 343.708L250.165 333.807L251.138 351.752H240.397Z" fill="black"/>
<path d="M240.397 402.669L241.37 384.724L226.342 394.625L220.994 385.255L237.082 377.211L220.994 369.166L226.342 359.796L241.37 369.697L240.397 351.752H251.138L250.165 369.697L265.193 359.796L270.541 369.166L254.453 377.211L270.541 385.255L265.193 394.625L250.165 384.724L251.138 402.669H240.397Z" fill="black"/>
<path d="M196.199 377.211L197.171 359.266L182.143 369.166L176.795 359.796L192.884 351.752L176.795 343.708L182.143 334.338L197.171 344.238L196.199 326.293H206.939L205.967 344.238L220.994 334.338L226.342 343.708L210.254 351.752L226.342 359.796L220.994 369.166L205.967 359.266L206.939 377.211H196.199Z" fill="black"/>
<path d="M284.596 275.376L285.568 257.432L270.541 267.332L265.193 257.962L281.281 249.918L265.193 241.874L270.541 232.503L285.568 242.404L284.596 224.459H295.336L294.364 242.404L309.392 232.503L314.74 241.874L298.651 249.918L314.74 257.962L309.392 267.332L294.364 257.432L295.336 275.376H284.596Z" fill="black"/>
<path d="M284.596 326.294L285.568 308.349L270.541 318.249L265.193 308.879L281.281 300.835L265.193 292.791L270.541 283.421L285.568 293.321L284.596 275.376H295.336L294.364 293.321L309.392 283.421L314.74 292.791L298.651 300.835L314.74 308.879L309.392 318.249L294.364 308.349L295.336 326.294H284.596Z" fill="black"/>
<path d="M240.397 300.835L241.37 282.89L226.342 292.791L220.994 283.421L237.082 275.376L220.994 267.332L226.342 257.962L241.37 267.863L240.397 249.918H251.138L250.165 267.863L265.193 257.962L270.541 267.332L254.453 275.376L270.541 283.421L265.193 292.791L250.165 282.89L251.138 300.835H240.397Z" fill="black"/>
<path d="M284.596 428.128L285.568 410.183L270.541 420.083L265.193 410.713L281.281 402.669L265.193 394.625L270.541 385.255L285.568 395.155L284.596 377.211H295.336L294.364 395.155L309.392 385.255L314.74 394.625L298.651 402.669L314.74 410.713L309.392 420.083L294.364 410.183L295.336 428.128H284.596Z" fill="black"/>
<path d="M284.596 479.045L285.568 461.1L270.541 471.001L265.193 461.63L281.281 453.586L265.193 445.542L270.541 436.172L285.568 446.073L284.596 428.128H295.336L294.364 446.073L309.392 436.172L314.74 445.542L298.651 453.586L314.74 461.63L309.392 471.001L294.364 461.1L295.336 479.045H284.596Z" fill="black"/>
<path d="M240.397 453.586L241.37 435.642L226.342 445.542L220.994 436.172L237.082 428.128L220.994 420.083L226.342 410.713L241.37 420.614L240.397 402.669H251.138L250.165 420.614L265.193 410.713L270.541 420.083L254.453 428.128L270.541 436.172L265.193 445.542L250.165 435.642L251.138 453.586H240.397Z" fill="black"/>
<path d="M328.795 351.752L329.767 333.807L314.74 343.708L309.391 334.338L325.48 326.294L309.392 318.249L314.74 308.879L329.767 318.78L328.795 300.835H339.535L338.563 318.78L353.591 308.879L358.939 318.249L342.85 326.294L358.939 334.338L353.591 343.708L338.563 333.807L339.535 351.752H328.795Z" fill="black"/>
<path d="M328.795 402.669L329.767 384.724L314.74 394.625L309.392 385.255L325.48 377.211L309.391 369.166L314.74 359.796L329.767 369.697L328.795 351.752H339.535L338.563 369.697L353.591 359.796L358.939 369.166L342.85 377.211L358.939 385.255L353.591 394.625L338.563 384.724L339.535 402.669H328.795Z" fill="black"/>
<path d="M284.596 377.211L285.568 359.266L270.541 369.166L265.193 359.796L281.281 351.752L265.193 343.708L270.541 334.338L285.568 344.238L284.596 326.294H295.336L294.364 344.238L309.391 334.338L314.74 343.708L298.651 351.752L314.74 359.796L309.391 369.166L294.364 359.266L295.336 377.211H284.596Z" fill="black"/>
<path d="M196.199 428.128L197.171 410.183L182.143 420.084L176.795 410.714L192.884 402.669L176.795 394.625L182.143 385.255L197.171 395.155L196.199 377.211H206.939L205.967 395.155L220.994 385.255L226.342 394.625L210.254 402.669L226.342 410.713L220.994 420.083L205.967 410.183L206.939 428.128H196.199Z" fill="black"/>
<path d="M152 453.586L152.972 435.642L137.945 445.542L132.596 436.172L148.685 428.128L132.596 420.083L137.945 410.713L152.972 420.614L152 402.669H162.74L161.768 420.614L176.795 410.714L182.143 420.084L166.055 428.128L182.143 436.172L176.795 445.542L161.768 435.642L162.74 453.586H152Z" fill="black"/>
<path d="M196.199 479.045L197.171 461.1L182.143 471.001L176.795 461.631L192.884 453.587L176.795 445.542L182.143 436.172L197.171 446.073L196.199 428.128H206.939L205.967 446.073L220.994 436.172L226.342 445.542L210.254 453.587L226.342 461.631L220.994 471.001L205.967 461.1L206.939 479.045H196.199Z" fill="black"/>
<path d="M196.199 326.293L197.171 308.349L182.143 318.249L176.795 308.879L192.884 300.835L176.795 292.79L182.143 283.42L197.171 293.321L196.199 275.376H206.939L205.967 293.321L220.994 283.421L226.342 292.791L210.254 300.835L226.342 308.879L220.994 318.249L205.967 308.349L206.939 326.293H196.199Z" fill="black"/>
<path d="M152 300.835L152.972 282.89L137.945 292.791L132.596 283.421L148.685 275.377L132.596 267.332L137.945 257.962L152.972 267.863L152 249.918H162.74L161.768 267.863L176.795 257.962L182.143 267.332L166.055 275.377L182.143 283.42L176.795 292.79L161.768 282.89L162.74 300.835H152Z" fill="black"/>
<path d="M152 249.918L152.972 231.973L137.945 241.874L132.596 232.503L148.685 224.46L132.596 216.415L137.945 207.045L152.972 216.946L152 199.001H162.74L161.768 216.946L176.795 207.045L182.143 216.415L166.055 224.46L182.143 232.503L176.795 241.873L161.768 231.973L162.74 249.918H152Z" fill="black"/>
<path d="M63.6021 249.918L64.5742 231.973L49.5468 241.874L44.1988 232.503L60.2869 224.46L44.1988 216.415L49.5468 207.045L64.5742 216.946L63.6018 199.001H74.3421L73.3698 216.946L88.3972 207.045L93.7453 216.415L77.6571 224.46L93.7456 232.503L88.3975 241.874L73.3698 231.973L74.3424 249.918H63.6021Z" fill="black"/>
<path d="M19.4033 326.293L20.3754 308.349L5.34807 318.249L0 308.879L16.0881 300.835L0 292.79L5.34807 283.42L20.3754 293.321L19.4031 275.376H30.1434L29.171 293.321L44.1988 283.421L49.5468 292.791L33.4583 300.835L49.5468 308.879L44.1988 318.249L29.171 308.349L30.1437 326.293H19.4033Z" fill="black"/>
<path d="M19.4031 275.376L20.3754 257.431L5.34807 267.332L3.8147e-06 257.961L16.0881 249.917L3.8147e-06 241.873L5.34807 232.503L20.3754 242.404L19.4031 224.459H30.1434L29.171 242.404L44.1988 232.503L49.5468 241.874L33.4583 249.917L49.5468 257.962L44.1988 267.332L29.171 257.431L30.1434 275.376H19.4031Z" fill="black"/>
<path d="M19.4031 428.128L20.3754 410.183L5.34808 420.084L7.62939e-06 410.713L16.0881 402.669L7.62939e-06 394.625L5.34808 385.255L20.3754 395.156L19.4033 377.211H30.1437L29.171 395.156L44.1988 385.255L49.5468 394.625L33.4583 402.669L49.5468 410.713L44.1988 420.083L29.171 410.183L30.1434 428.128H19.4031Z" fill="black"/>
<path d="M19.4031 479.045L20.3754 461.1L5.34807 471L0 461.63L16.0881 453.586L0 445.542L5.34807 436.172L20.3754 446.072L19.4031 428.128H30.1434L29.171 446.072L44.1988 436.172L49.5468 445.542L33.4583 453.586L49.5468 461.63L44.1987 471L29.171 461.1L30.1434 479.045H19.4031Z" fill="black"/>
<path d="M328.795 453.587L329.767 435.642L314.74 445.542L309.392 436.172L325.48 428.128L309.392 420.083L314.74 410.713L329.767 420.614L328.795 402.669H339.535L338.563 420.614L353.591 410.714L358.939 420.084L342.85 428.128L358.939 436.172L353.591 445.542L338.563 435.642L339.535 453.587H328.795Z" fill="black"/>
<path d="M196.199 275.376L197.171 257.432L182.143 267.332L176.795 257.962L192.884 249.918L176.795 241.873L182.143 232.503L197.171 242.404L196.199 224.46H206.939L205.966 242.404L220.994 232.504L226.342 241.874L210.254 249.918L226.342 257.962L220.994 267.332L205.966 257.432L206.939 275.376H196.199Z" fill="black"/>
<path d="M240.397 249.918L241.37 231.973L226.342 241.874L220.994 232.504L237.083 224.459L220.994 216.414L226.342 207.044L241.37 216.945L240.398 199.001H251.138L250.165 216.945L265.193 207.045L270.541 216.415L254.453 224.459L270.541 232.503L265.193 241.874L250.165 231.973L251.138 249.918H240.397Z" fill="black"/>
<path d="M328.795 300.835L329.768 282.89L314.74 292.791L309.392 283.421L325.48 275.376L309.392 267.331L314.74 257.961L329.768 267.862L328.795 249.917H339.536L338.563 267.862L353.591 257.962L358.939 267.332L342.851 275.376L358.939 283.42L353.59 292.79L338.563 282.89L339.535 300.835H328.795Z" fill="black"/>
<path d="M328.795 249.917L329.768 231.972L314.74 241.874L309.392 232.503L325.481 224.459L309.392 216.414L314.74 207.043L329.768 216.945L328.796 199H339.536L338.563 216.945L353.591 207.044L358.939 216.414L342.851 224.459L358.939 232.503L353.591 241.873L338.563 231.972L339.536 249.917H328.795Z" fill="black"/>
<path d="M63.6021 351.752L64.5745 333.807L49.5468 343.708L44.1988 334.338L60.2872 326.293L44.1988 318.249L49.5468 308.879L64.5745 318.78L63.6021 300.835H74.3425L73.3701 318.78L88.3978 308.879L93.7458 318.249L77.6574 326.293L93.7458 334.338L88.3978 343.708L73.3701 333.807L74.3425 351.752H63.6021Z" fill="black"/>
<path d="M63.6021 402.669L64.5745 384.724L49.5468 394.625L44.1988 385.255L60.2872 377.211L44.1988 369.166L49.5468 359.796L64.5745 369.697L63.6021 351.752H74.3425L73.3701 369.697L88.3978 359.796L93.7458 369.166L77.6574 377.211L93.7458 385.255L88.3978 394.625L73.3701 384.724L74.3425 402.669H63.6021Z" fill="black"/>
<path d="M19.4033 377.211L20.3757 359.266L5.34807 369.166L0 359.796L16.0884 351.752L0 343.708L5.34807 334.338L20.3757 344.238L19.4033 326.293H30.1437L29.1713 344.238L44.1988 334.338L49.5468 343.708L33.4586 351.752L49.5468 359.796L44.1988 369.166L29.1713 359.266L30.1437 377.211H19.4033Z" fill="black"/>
<path d="M107.801 275.376L108.773 257.432L93.7456 267.332L88.3975 257.962L104.486 249.918L88.3975 241.874L93.7456 232.503L108.773 242.404L107.801 224.459H118.541L117.569 242.404L132.596 232.503L137.945 241.874L121.856 249.918L137.945 257.962L132.596 267.332L117.569 257.432L118.541 275.376H107.801Z" fill="black"/>
<path d="M107.801 326.294L108.773 308.349L93.7458 318.249L88.3978 308.879L104.486 300.835L88.3975 292.791L93.7456 283.421L108.773 293.321L107.801 275.376H118.541L117.569 293.321L132.596 283.421L137.945 292.791L121.856 300.835L137.945 308.879L132.596 318.249L117.569 308.349L118.541 326.294H107.801Z" fill="black"/>
<path d="M63.6021 300.835L64.5744 282.89L49.5468 292.791L44.1988 283.421L60.2871 275.376L44.1988 267.332L49.5468 257.962L64.5744 267.863L63.6021 249.918H74.3424L73.37 267.863L88.3975 257.962L93.7456 267.332L77.6573 275.376L93.7456 283.421L88.3975 292.791L73.37 282.89L74.3425 300.835H63.6021Z" fill="black"/>
<path d="M107.801 428.128L108.773 410.183L93.7456 420.083L88.3975 410.713L104.486 402.669L88.3978 394.625L93.7458 385.255L108.773 395.155L107.801 377.211H118.541L117.569 395.155L132.596 385.255L137.945 394.625L121.856 402.669L137.945 410.713L132.596 420.083L117.569 410.183L118.541 428.128H107.801Z" fill="black"/>
<path d="M107.801 479.045L108.773 461.1L93.7456 471.001L88.3975 461.63L104.486 453.586L88.3975 445.542L93.7456 436.172L108.773 446.073L107.801 428.128H118.541L117.569 446.073L132.596 436.172L137.945 445.542L121.856 453.586L137.945 461.63L132.596 471.001L117.569 461.1L118.541 479.045H107.801Z" fill="black"/>
<path d="M63.6021 453.586L64.5744 435.642L49.5468 445.542L44.1988 436.172L60.2871 428.128L44.1988 420.083L49.5468 410.713L64.5744 420.614L63.6021 402.669H74.3425L73.37 420.614L88.3975 410.713L93.7456 420.083L77.6573 428.128L93.7456 436.172L88.3975 445.542L73.37 435.642L74.3424 453.586H63.6021Z" fill="black"/>
<path d="M152 351.752L152.972 333.807L137.944 343.708L132.596 334.338L148.685 326.294L132.596 318.249L137.945 308.879L152.972 318.78L152 300.835H162.74L161.768 318.78L176.795 308.879L182.143 318.249L166.055 326.294L182.143 334.338L176.795 343.708L161.768 333.807L162.74 351.752H152Z" fill="black"/>
<path d="M152 402.669L152.972 384.724L137.945 394.625L132.596 385.255L148.685 377.211L132.596 369.166L137.944 359.796L152.972 369.697L152 351.752H162.74L161.768 369.697L176.795 359.796L182.143 369.166L166.055 377.211L182.143 385.255L176.795 394.625L161.768 384.724L162.74 402.669H152Z" fill="black"/>
<path d="M107.801 377.211L108.773 359.266L93.7458 369.166L88.3978 359.796L104.486 351.752L88.3978 343.708L93.7458 334.338L108.773 344.238L107.801 326.294H118.541L117.569 344.238L132.596 334.338L137.944 343.708L121.856 351.752L137.944 359.796L132.596 369.166L117.569 359.266L118.541 377.211H107.801Z" fill="black"/>
<path d="M240.397 351.752L241.37 333.807L226.342 343.708L220.994 334.338L237.082 326.293L220.994 318.249L226.342 308.879L241.37 318.78L240.397 300.835H251.138L250.165 318.78L265.193 308.879L270.541 318.249L254.453 326.293L270.541 334.338L265.193 343.708L250.165 333.807L251.138 351.752H240.397Z" fill="black"/>
<path d="M240.397 402.669L241.37 384.724L226.342 394.625L220.994 385.255L237.082 377.211L220.994 369.166L226.342 359.796L241.37 369.697L240.397 351.752H251.138L250.165 369.697L265.193 359.796L270.541 369.166L254.453 377.211L270.541 385.255L265.193 394.625L250.165 384.724L251.138 402.669H240.397Z" fill="black"/>
<path d="M196.199 377.211L197.171 359.266L182.143 369.166L176.795 359.796L192.884 351.752L176.795 343.708L182.143 334.338L197.171 344.238L196.199 326.293H206.939L205.967 344.238L220.994 334.338L226.342 343.708L210.254 351.752L226.342 359.796L220.994 369.166L205.967 359.266L206.939 377.211H196.199Z" fill="black"/>
<path d="M284.596 275.376L285.568 257.432L270.541 267.332L265.193 257.962L281.281 249.918L265.193 241.874L270.541 232.503L285.568 242.404L284.596 224.459H295.336L294.364 242.404L309.392 232.503L314.74 241.874L298.651 249.918L314.74 257.962L309.392 267.332L294.364 257.432L295.336 275.376H284.596Z" fill="black"/>
<path d="M284.596 326.294L285.568 308.349L270.541 318.249L265.193 308.879L281.281 300.835L265.193 292.791L270.541 283.421L285.568 293.321L284.596 275.376H295.336L294.364 293.321L309.392 283.421L314.74 292.791L298.651 300.835L314.74 308.879L309.392 318.249L294.364 308.349L295.336 326.294H284.596Z" fill="black"/>
<path d="M240.397 300.835L241.37 282.89L226.342 292.791L220.994 283.421L237.082 275.376L220.994 267.332L226.342 257.962L241.37 267.863L240.397 249.918H251.138L250.165 267.863L265.193 257.962L270.541 267.332L254.453 275.376L270.541 283.421L265.193 292.791L250.165 282.89L251.138 300.835H240.397Z" fill="black"/>
<path d="M284.596 428.128L285.568 410.183L270.541 420.083L265.193 410.713L281.281 402.669L265.193 394.625L270.541 385.255L285.568 395.155L284.596 377.211H295.336L294.364 395.155L309.392 385.255L314.74 394.625L298.651 402.669L314.74 410.713L309.392 420.083L294.364 410.183L295.336 428.128H284.596Z" fill="black"/>
<path d="M284.596 479.045L285.568 461.1L270.541 471.001L265.193 461.63L281.281 453.586L265.193 445.542L270.541 436.172L285.568 446.073L284.596 428.128H295.336L294.364 446.073L309.392 436.172L314.74 445.542L298.651 453.586L314.74 461.63L309.392 471.001L294.364 461.1L295.336 479.045H284.596Z" fill="black"/>
<path d="M240.397 453.586L241.37 435.642L226.342 445.542L220.994 436.172L237.082 428.128L220.994 420.083L226.342 410.713L241.37 420.614L240.397 402.669H251.138L250.165 420.614L265.193 410.713L270.541 420.083L254.453 428.128L270.541 436.172L265.193 445.542L250.165 435.642L251.138 453.586H240.397Z" fill="black"/>
<path d="M328.795 351.752L329.767 333.807L314.74 343.708L309.391 334.338L325.48 326.294L309.392 318.249L314.74 308.879L329.767 318.78L328.795 300.835H339.535L338.563 318.78L353.591 308.879L358.939 318.249L342.85 326.294L358.939 334.338L353.591 343.708L338.563 333.807L339.535 351.752H328.795Z" fill="black"/>
<path d="M328.795 402.669L329.767 384.724L314.74 394.625L309.392 385.255L325.48 377.211L309.391 369.166L314.74 359.796L329.767 369.697L328.795 351.752H339.535L338.563 369.697L353.591 359.796L358.939 369.166L342.85 377.211L358.939 385.255L353.591 394.625L338.563 384.724L339.535 402.669H328.795Z" fill="black"/>
<path d="M284.596 377.211L285.568 359.266L270.541 369.166L265.193 359.796L281.281 351.752L265.193 343.708L270.541 334.338L285.568 344.238L284.596 326.294H295.336L294.364 344.238L309.391 334.338L314.74 343.708L298.651 351.752L314.74 359.796L309.391 369.166L294.364 359.266L295.336 377.211H284.596Z" fill="black"/>
<path d="M196.199 428.128L197.171 410.183L182.143 420.084L176.795 410.714L192.884 402.669L176.795 394.625L182.143 385.255L197.171 395.155L196.199 377.211H206.939L205.967 395.155L220.994 385.255L226.342 394.625L210.254 402.669L226.342 410.713L220.994 420.083L205.967 410.183L206.939 428.128H196.199Z" fill="black"/>
<path d="M152 453.586L152.972 435.642L137.945 445.542L132.596 436.172L148.685 428.128L132.596 420.083L137.945 410.713L152.972 420.614L152 402.669H162.74L161.768 420.614L176.795 410.714L182.143 420.084L166.055 428.128L182.143 436.172L176.795 445.542L161.768 435.642L162.74 453.586H152Z" fill="black"/>
<path d="M196.199 479.045L197.171 461.1L182.143 471.001L176.795 461.631L192.884 453.587L176.795 445.542L182.143 436.172L197.171 446.073L196.199 428.128H206.939L205.967 446.073L220.994 436.172L226.342 445.542L210.254 453.587L226.342 461.631L220.994 471.001L205.967 461.1L206.939 479.045H196.199Z" fill="black"/>
<path d="M196.199 326.293L197.171 308.349L182.143 318.249L176.795 308.879L192.884 300.835L176.795 292.79L182.143 283.42L197.171 293.321L196.199 275.376H206.939L205.967 293.321L220.994 283.421L226.342 292.791L210.254 300.835L226.342 308.879L220.994 318.249L205.967 308.349L206.939 326.293H196.199Z" fill="black"/>
<path d="M152 300.835L152.972 282.89L137.945 292.791L132.596 283.421L148.685 275.377L132.596 267.332L137.945 257.962L152.972 267.863L152 249.918H162.74L161.768 267.863L176.795 257.962L182.143 267.332L166.055 275.377L182.143 283.42L176.795 292.79L161.768 282.89L162.74 300.835H152Z" fill="black"/>
<path d="M152 249.918L152.972 231.973L137.945 241.874L132.596 232.503L148.685 224.46L132.596 216.415L137.945 207.045L152.972 216.946L152 199.001H162.74L161.768 216.946L176.795 207.045L182.143 216.415L166.055 224.46L182.143 232.503L176.795 241.873L161.768 231.973L162.74 249.918H152Z" fill="black"/>
<path d="M63.6021 249.918L64.5742 231.973L49.5468 241.874L44.1988 232.503L60.2869 224.46L44.1988 216.415L49.5468 207.045L64.5742 216.946L63.6018 199.001H74.3421L73.3698 216.946L88.3972 207.045L93.7453 216.415L77.6571 224.46L93.7456 232.503L88.3975 241.874L73.3698 231.973L74.3424 249.918H63.6021Z" fill="black"/>
<path d="M19.4033 326.293L20.3754 308.349L5.34807 318.249L0 308.879L16.0881 300.835L0 292.79L5.34807 283.42L20.3754 293.321L19.4031 275.376H30.1434L29.171 293.321L44.1988 283.421L49.5468 292.791L33.4583 300.835L49.5468 308.879L44.1988 318.249L29.171 308.349L30.1437 326.293H19.4033Z" fill="black"/>
<path d="M19.4031 275.376L20.3754 257.431L5.34807 267.332L3.8147e-06 257.961L16.0881 249.917L3.8147e-06 241.873L5.34807 232.503L20.3754 242.404L19.4031 224.459H30.1434L29.171 242.404L44.1988 232.503L49.5468 241.874L33.4583 249.917L49.5468 257.962L44.1988 267.332L29.171 257.431L30.1434 275.376H19.4031Z" fill="black"/>
<path d="M19.4031 428.128L20.3754 410.183L5.34808 420.084L7.62939e-06 410.713L16.0881 402.669L7.62939e-06 394.625L5.34808 385.255L20.3754 395.156L19.4033 377.211H30.1437L29.171 395.156L44.1988 385.255L49.5468 394.625L33.4583 402.669L49.5468 410.713L44.1988 420.083L29.171 410.183L30.1434 428.128H19.4031Z" fill="black"/>
<path d="M19.4031 479.045L20.3754 461.1L5.34807 471L0 461.63L16.0881 453.586L0 445.542L5.34807 436.172L20.3754 446.072L19.4031 428.128H30.1434L29.171 446.072L44.1988 436.172L49.5468 445.542L33.4583 453.586L49.5468 461.63L44.1987 471L29.171 461.1L30.1434 479.045H19.4031Z" fill="black"/>
<path d="M328.795 453.587L329.767 435.642L314.74 445.542L309.392 436.172L325.48 428.128L309.392 420.083L314.74 410.713L329.767 420.614L328.795 402.669H339.535L338.563 420.614L353.591 410.714L358.939 420.084L342.85 428.128L358.939 436.172L353.591 445.542L338.563 435.642L339.535 453.587H328.795Z" fill="black"/>
<path d="M196.199 275.376L197.171 257.432L182.143 267.332L176.795 257.962L192.884 249.918L176.795 241.873L182.143 232.503L197.171 242.404L196.199 224.46H206.939L205.966 242.404L220.994 232.504L226.342 241.874L210.254 249.918L226.342 257.962L220.994 267.332L205.966 257.432L206.939 275.376H196.199Z" fill="black"/>
<path d="M240.397 249.918L241.37 231.973L226.342 241.874L220.994 232.504L237.083 224.459L220.994 216.414L226.342 207.044L241.37 216.945L240.398 199.001H251.138L250.165 216.945L265.193 207.045L270.541 216.415L254.453 224.459L270.541 232.503L265.193 241.874L250.165 231.973L251.138 249.918H240.397Z" fill="black"/>
<path d="M328.795 300.835L329.768 282.89L314.74 292.791L309.392 283.421L325.48 275.376L309.392 267.331L314.74 257.961L329.768 267.862L328.795 249.917H339.536L338.563 267.862L353.591 257.962L358.939 267.332L342.851 275.376L358.939 283.42L353.59 292.79L338.563 282.89L339.535 300.835H328.795Z" fill="black"/>
<path d="M328.795 249.917L329.768 231.972L314.74 241.874L309.392 232.503L325.481 224.459L309.392 216.414L314.74 207.043L329.768 216.945L328.796 199H339.536L338.563 216.945L353.591 207.044L358.939 216.414L342.851 224.459L358.939 232.503L353.591 241.873L338.563 231.972L339.536 249.917H328.795Z" fill="black"/>
<path d="M417.163 351.752L418.135 333.807L403.108 343.708L397.76 334.338L413.848 326.293L397.76 318.249L403.108 308.879L418.135 318.78L417.163 300.835H427.903L426.931 318.78L441.959 308.879L447.307 318.249L431.218 326.293L447.307 334.338L441.959 343.708L426.931 333.807L427.903 351.752H417.163Z" fill="black"/>
<path d="M417.163 402.669L418.135 384.724L403.108 394.625L397.76 385.255L413.848 377.211L397.76 369.166L403.108 359.796L418.135 369.697L417.163 351.752H427.903L426.931 369.697L441.959 359.796L447.307 369.166L431.218 377.211L447.307 385.255L441.959 394.625L426.931 384.724L427.903 402.669H417.163Z" fill="black"/>
<path d="M372.964 377.211L373.937 359.266L358.909 369.166L353.561 359.796L369.649 351.752L353.561 343.708L358.909 334.338L373.937 344.238L372.964 326.293H383.705L382.732 344.238L397.76 334.338L403.108 343.708L387.02 351.752L403.108 359.796L397.76 369.166L382.732 359.266L383.705 377.211H372.964Z" fill="black"/>
<path d="M461.362 275.376L462.334 257.432L447.307 267.332L441.958 257.962L458.047 249.918L441.958 241.874L447.307 232.503L462.334 242.404L461.362 224.459H472.102L471.13 242.404L486.157 232.503L491.505 241.874L475.417 249.918L491.505 257.962L486.157 267.332L471.13 257.432L472.102 275.376H461.362Z" fill="black"/>
<path d="M461.362 326.294L462.334 308.349L447.307 318.249L441.959 308.879L458.047 300.835L441.958 292.791L447.307 283.421L462.334 293.321L461.362 275.376H472.102L471.13 293.321L486.157 283.421L491.505 292.791L475.417 300.835L491.505 308.879L486.157 318.249L471.13 308.349L472.102 326.294H461.362Z" fill="black"/>
<path d="M417.163 300.835L418.135 282.89L403.108 292.791L397.76 283.421L413.848 275.376L397.76 267.332L403.108 257.962L418.135 267.863L417.163 249.918H427.903L426.931 267.863L441.958 257.962L447.307 267.332L431.218 275.376L447.307 283.421L441.958 292.791L426.931 282.89L427.903 300.835H417.163Z" fill="black"/>
<path d="M461.362 428.128L462.334 410.183L447.307 420.083L441.958 410.713L458.047 402.669L441.959 394.625L447.307 385.255L462.334 395.155L461.362 377.211H472.102L471.13 395.155L486.157 385.255L491.505 394.625L475.417 402.669L491.505 410.713L486.157 420.083L471.13 410.183L472.102 428.128H461.362Z" fill="black"/>
<path d="M461.362 479.045L462.334 461.1L447.307 471.001L441.958 461.63L458.047 453.586L441.958 445.542L447.307 436.172L462.334 446.073L461.362 428.128H472.102L471.13 446.073L486.157 436.172L491.505 445.542L475.417 453.586L491.505 461.63L486.157 471.001L471.13 461.1L472.102 479.045H461.362Z" fill="black"/>
<path d="M417.163 453.586L418.135 435.642L403.108 445.542L397.76 436.172L413.848 428.128L397.76 420.083L403.108 410.713L418.135 420.614L417.163 402.669H427.903L426.931 420.614L441.958 410.713L447.307 420.083L431.218 428.128L447.307 436.172L441.958 445.542L426.931 435.642L427.903 453.586H417.163Z" fill="black"/>
<path d="M505.561 351.752L506.533 333.807L491.505 343.708L486.157 334.338L502.246 326.294L486.157 318.249L491.505 308.879L506.533 318.78L505.561 300.835H516.301L515.329 318.78L530.356 308.879L535.704 318.249L519.616 326.294L535.704 334.338L530.356 343.708L515.329 333.807L516.301 351.752H505.561Z" fill="black"/>
<path d="M505.561 402.669L506.533 384.724L491.505 394.625L486.157 385.255L502.246 377.211L486.157 369.166L491.505 359.796L506.533 369.697L505.561 351.752H516.301L515.329 369.697L530.356 359.796L535.704 369.166L519.616 377.211L535.704 385.255L530.356 394.625L515.329 384.724L516.301 402.669H505.561Z" fill="black"/>
<path d="M461.362 377.211L462.334 359.266L447.307 369.166L441.959 359.796L458.047 351.752L441.959 343.708L447.307 334.338L462.334 344.238L461.362 326.294H472.102L471.13 344.238L486.157 334.338L491.505 343.708L475.417 351.752L491.505 359.796L486.157 369.166L471.13 359.266L472.102 377.211H461.362Z" fill="black"/>
<path d="M593.958 351.752L594.931 333.807L579.903 343.708L574.555 334.338L590.643 326.293L574.555 318.249L579.903 308.879L594.931 318.78L593.958 300.835H604.699L603.726 318.78L618.754 308.879L624.102 318.249L608.014 326.293L624.102 334.338L618.754 343.708L603.726 333.807L604.699 351.752H593.958Z" fill="black"/>
<path d="M593.958 402.669L594.931 384.724L579.903 394.625L574.555 385.255L590.643 377.211L574.555 369.166L579.903 359.796L594.931 369.697L593.958 351.752H604.699L603.726 369.697L618.754 359.796L624.102 369.166L608.014 377.211L624.102 385.255L618.754 394.625L603.726 384.724L604.699 402.669H593.958Z" fill="black"/>
<path d="M549.759 377.211L550.732 359.266L535.704 369.166L530.356 359.796L546.445 351.752L530.356 343.708L535.704 334.338L550.732 344.238L549.759 326.293H560.5L559.527 344.238L574.555 334.338L579.903 343.708L563.815 351.752L579.903 359.796L574.555 369.166L559.527 359.266L560.5 377.211H549.759Z" fill="black"/>
<path d="M638.157 275.376L639.129 257.432L624.102 267.332L618.754 257.962L634.842 249.918L618.754 241.874L624.102 232.503L639.129 242.404L638.157 224.459H648.897L647.925 242.404L662.953 232.503L668.301 241.874L652.212 249.918L668.301 257.962L662.953 267.332L647.925 257.432L648.897 275.376H638.157Z" fill="black"/>
<path d="M638.157 326.294L639.129 308.349L624.102 318.249L618.754 308.879L634.842 300.835L618.754 292.791L624.102 283.421L639.129 293.321L638.157 275.376H648.897L647.925 293.321L662.953 283.421L668.301 292.791L652.212 300.835L668.301 308.879L662.953 318.249L647.925 308.349L648.897 326.294H638.157Z" fill="black"/>
<path d="M593.958 300.835L594.931 282.89L579.903 292.791L574.555 283.421L590.643 275.376L574.555 267.332L579.903 257.962L594.931 267.863L593.958 249.918H604.699L603.726 267.863L618.754 257.962L624.102 267.332L608.014 275.376L624.102 283.421L618.754 292.791L603.726 282.89L604.699 300.835H593.958Z" fill="black"/>
<path d="M638.157 428.128L639.129 410.183L624.102 420.083L618.754 410.713L634.842 402.669L618.754 394.625L624.102 385.255L639.129 395.155L638.157 377.211H648.897L647.925 395.155L662.953 385.255L668.301 394.625L652.212 402.669L668.301 410.713L662.953 420.083L647.925 410.183L648.897 428.128H638.157Z" fill="black"/>
<path d="M638.157 479.045L639.129 461.1L624.102 471.001L618.754 461.63L634.842 453.586L618.754 445.542L624.102 436.172L639.129 446.073L638.157 428.128H648.897L647.925 446.073L662.953 436.172L668.301 445.542L652.212 453.586L668.301 461.63L662.953 471.001L647.925 461.1L648.897 479.045H638.157Z" fill="black"/>
<path d="M593.958 453.586L594.931 435.642L579.903 445.542L574.555 436.172L590.643 428.128L574.555 420.083L579.903 410.713L594.931 420.614L593.958 402.669H604.699L603.726 420.614L618.754 410.713L624.102 420.083L608.014 428.128L624.102 436.172L618.754 445.542L603.726 435.642L604.699 453.586H593.958Z" fill="black"/>
<path d="M682.356 351.752L683.328 333.807L668.301 343.708L662.952 334.338L679.041 326.294L662.953 318.249L668.301 308.879L683.328 318.78L682.356 300.835H693.096L692.124 318.78L707.151 308.879L712.499 318.249L696.411 326.294L712.499 334.338L707.151 343.708L692.124 333.807L693.096 351.752H682.356Z" fill="black"/>
<path d="M682.356 402.669L683.328 384.724L668.301 394.625L662.953 385.255L679.041 377.211L662.952 369.166L668.301 359.796L683.328 369.697L682.356 351.752H693.096L692.124 369.697L707.151 359.796L712.499 369.166L696.411 377.211L712.499 385.255L707.151 394.625L692.124 384.724L693.096 402.669H682.356Z" fill="black"/>
<path d="M638.157 377.211L639.129 359.266L624.102 369.166L618.754 359.796L634.842 351.752L618.754 343.708L624.102 334.338L639.129 344.238L638.157 326.294H648.897L647.925 344.238L662.952 334.338L668.301 343.708L652.212 351.752L668.301 359.796L662.952 369.166L647.925 359.266L648.897 377.211H638.157Z" fill="black"/>
<path d="M549.759 428.128L550.732 410.183L535.704 420.084L530.356 410.714L546.445 402.669L530.356 394.625L535.704 385.255L550.732 395.155L549.759 377.211H560.5L559.527 395.155L574.555 385.255L579.903 394.625L563.815 402.669L579.903 410.713L574.555 420.083L559.527 410.183L560.5 428.128H549.759Z" fill="black"/>
<path d="M505.561 453.586L506.533 435.642L491.505 445.542L486.157 436.172L502.246 428.128L486.157 420.083L491.505 410.713L506.533 420.614L505.561 402.669H516.301L515.329 420.614L530.356 410.714L535.704 420.084L519.616 428.128L535.704 436.172L530.356 445.542L515.329 435.642L516.301 453.586H505.561Z" fill="black"/>
<path d="M549.759 479.045L550.732 461.1L535.704 471.001L530.356 461.631L546.445 453.587L530.356 445.542L535.704 436.172L550.732 446.073L549.759 428.128H560.5L559.527 446.073L574.555 436.172L579.903 445.542L563.815 453.587L579.903 461.631L574.555 471.001L559.527 461.1L560.5 479.045H549.759Z" fill="black"/>
<path d="M549.759 326.293L550.732 308.349L535.704 318.249L530.356 308.879L546.445 300.835L530.356 292.79L535.704 283.42L550.732 293.321L549.759 275.376H560.5L559.527 293.321L574.555 283.421L579.903 292.791L563.815 300.835L579.903 308.879L574.555 318.249L559.527 308.349L560.5 326.293H549.759Z" fill="black"/>
<path d="M505.561 300.835L506.533 282.89L491.505 292.791L486.157 283.421L502.246 275.377L486.157 267.332L491.505 257.962L506.533 267.863L505.56 249.918H516.301L515.328 267.863L530.356 257.962L535.704 267.332L519.616 275.377L535.704 283.42L530.356 292.79L515.328 282.89L516.301 300.835H505.561Z" fill="black"/>
<path d="M505.56 249.918L506.533 231.973L491.505 241.874L486.157 232.503L502.246 224.46L486.157 216.415L491.505 207.045L506.533 216.946L505.56 199.001H516.301L515.328 216.946L530.356 207.045L535.704 216.415L519.616 224.46L535.704 232.503L530.356 241.873L515.328 231.973L516.301 249.918H505.56Z" fill="black"/>
<path d="M417.163 249.918L418.135 231.973L403.108 241.874L397.76 232.503L413.848 224.46L397.76 216.415L403.108 207.045L418.135 216.946L417.163 199.001H427.903L426.931 216.946L441.958 207.045L447.306 216.415L431.218 224.46L447.307 232.503L441.958 241.874L426.931 231.973L427.903 249.918H417.163Z" fill="black"/>
<path d="M372.964 326.293L373.936 308.349L358.909 318.249L353.561 308.879L369.649 300.835L353.561 292.79L358.909 283.42L373.936 293.321L372.964 275.376H383.704L382.732 293.321L397.76 283.421L403.108 292.791L387.019 300.835L403.108 308.879L397.76 318.249L382.732 308.349L383.705 326.293H372.964Z" fill="black"/>
<path d="M372.964 275.376L373.936 257.431L358.909 267.332L353.561 257.961L369.649 249.917L353.561 241.873L358.909 232.503L373.936 242.404L372.964 224.459H383.704L382.732 242.404L397.76 232.503L403.108 241.874L387.019 249.917L403.108 257.962L397.76 267.332L382.732 257.431L383.704 275.376H372.964Z" fill="black"/>
<path d="M372.964 428.128L373.936 410.183L358.909 420.084L353.561 410.713L369.649 402.669L353.561 394.625L358.909 385.255L373.936 395.156L372.964 377.211H383.705L382.732 395.156L397.76 385.255L403.108 394.625L387.019 402.669L403.108 410.713L397.76 420.083L382.732 410.183L383.704 428.128H372.964Z" fill="black"/>
<path d="M372.964 479.045L373.936 461.1L358.909 471L353.561 461.63L369.649 453.586L353.561 445.542L358.909 436.172L373.936 446.072L372.964 428.128H383.704L382.732 446.072L397.76 436.172L403.108 445.542L387.019 453.586L403.108 461.63L397.76 471L382.732 461.1L383.704 479.045H372.964Z" fill="black"/>
<path d="M682.356 453.587L683.328 435.642L668.301 445.542L662.953 436.172L679.041 428.128L662.953 420.083L668.301 410.713L683.328 420.614L682.356 402.669H693.096L692.124 420.614L707.152 410.714L712.5 420.084L696.411 428.128L712.5 436.172L707.152 445.542L692.124 435.642L693.096 453.587H682.356Z" fill="black"/>
<path d="M549.759 275.376L550.732 257.432L535.704 267.332L530.356 257.962L546.445 249.918L530.356 241.873L535.704 232.503L550.732 242.404L549.759 224.46H560.5L559.527 242.404L574.555 232.504L579.903 241.874L563.815 249.918L579.903 257.962L574.555 267.332L559.527 257.432L560.5 275.376H549.759Z" fill="black"/>
<path d="M593.958 249.918L594.931 231.973L579.903 241.874L574.555 232.504L590.644 224.459L574.555 216.414L579.903 207.044L594.931 216.945L593.958 199.001H604.699L603.726 216.945L618.754 207.045L624.102 216.415L608.014 224.459L624.102 232.503L618.754 241.874L603.726 231.973L604.699 249.918H593.958Z" fill="black"/>
<path d="M682.356 300.835L683.329 282.89L668.301 292.791L662.953 283.421L679.041 275.376L662.953 267.331L668.301 257.961L683.329 267.862L682.356 249.917H693.097L692.124 267.862L707.152 257.962L712.5 267.332L696.411 275.376L712.5 283.42L707.151 292.79L692.124 282.89L693.096 300.835H682.356Z" fill="black"/>
<path d="M682.356 249.917L683.329 231.972L668.301 241.874L662.953 232.503L679.042 224.459L662.953 216.414L668.301 207.043L683.329 216.945L682.356 199H693.097L692.124 216.945L707.152 207.044L712.5 216.414L696.412 224.459L712.5 232.503L707.152 241.873L692.124 231.972L693.097 249.917H682.356Z" fill="black"/>
<path d="M417.163 351.752L418.135 333.807L403.108 343.708L397.76 334.338L413.848 326.293L397.76 318.249L403.108 308.879L418.135 318.78L417.163 300.835H427.903L426.931 318.78L441.959 308.879L447.307 318.249L431.218 326.293L447.307 334.338L441.959 343.708L426.931 333.807L427.903 351.752H417.163Z" fill="black"/>
<path d="M417.163 402.669L418.135 384.724L403.108 394.625L397.76 385.255L413.848 377.211L397.76 369.166L403.108 359.796L418.135 369.697L417.163 351.752H427.903L426.931 369.697L441.959 359.796L447.307 369.166L431.218 377.211L447.307 385.255L441.959 394.625L426.931 384.724L427.903 402.669H417.163Z" fill="black"/>
<path d="M372.964 377.211L373.937 359.266L358.909 369.166L353.561 359.796L369.649 351.752L353.561 343.708L358.909 334.338L373.937 344.238L372.964 326.293H383.705L382.732 344.238L397.76 334.338L403.108 343.708L387.02 351.752L403.108 359.796L397.76 369.166L382.732 359.266L383.705 377.211H372.964Z" fill="black"/>
<path d="M461.362 275.376L462.334 257.432L447.307 267.332L441.958 257.962L458.047 249.918L441.958 241.874L447.307 232.503L462.334 242.404L461.362 224.459H472.102L471.13 242.404L486.157 232.503L491.505 241.874L475.417 249.918L491.505 257.962L486.157 267.332L471.13 257.432L472.102 275.376H461.362Z" fill="black"/>
<path d="M461.362 326.294L462.334 308.349L447.307 318.249L441.959 308.879L458.047 300.835L441.958 292.791L447.307 283.421L462.334 293.321L461.362 275.376H472.102L471.13 293.321L486.157 283.421L491.505 292.791L475.417 300.835L491.505 308.879L486.157 318.249L471.13 308.349L472.102 326.294H461.362Z" fill="black"/>
<path d="M417.163 300.835L418.135 282.89L403.108 292.791L397.76 283.421L413.848 275.376L397.76 267.332L403.108 257.962L418.135 267.863L417.163 249.918H427.903L426.931 267.863L441.958 257.962L447.307 267.332L431.218 275.376L447.307 283.421L441.958 292.791L426.931 282.89L427.903 300.835H417.163Z" fill="black"/>
<path d="M461.362 428.128L462.334 410.183L447.307 420.083L441.958 410.713L458.047 402.669L441.959 394.625L447.307 385.255L462.334 395.155L461.362 377.211H472.102L471.13 395.155L486.157 385.255L491.505 394.625L475.417 402.669L491.505 410.713L486.157 420.083L471.13 410.183L472.102 428.128H461.362Z" fill="black"/>
<path d="M461.362 479.045L462.334 461.1L447.307 471.001L441.958 461.63L458.047 453.586L441.958 445.542L447.307 436.172L462.334 446.073L461.362 428.128H472.102L471.13 446.073L486.157 436.172L491.505 445.542L475.417 453.586L491.505 461.63L486.157 471.001L471.13 461.1L472.102 479.045H461.362Z" fill="black"/>
<path d="M417.163 453.586L418.135 435.642L403.108 445.542L397.76 436.172L413.848 428.128L397.76 420.083L403.108 410.713L418.135 420.614L417.163 402.669H427.903L426.931 420.614L441.958 410.713L447.307 420.083L431.218 428.128L447.307 436.172L441.958 445.542L426.931 435.642L427.903 453.586H417.163Z" fill="black"/>
<path d="M505.561 351.752L506.533 333.807L491.505 343.708L486.157 334.338L502.246 326.294L486.157 318.249L491.505 308.879L506.533 318.78L505.561 300.835H516.301L515.329 318.78L530.356 308.879L535.704 318.249L519.616 326.294L535.704 334.338L530.356 343.708L515.329 333.807L516.301 351.752H505.561Z" fill="black"/>
<path d="M505.561 402.669L506.533 384.724L491.505 394.625L486.157 385.255L502.246 377.211L486.157 369.166L491.505 359.796L506.533 369.697L505.561 351.752H516.301L515.329 369.697L530.356 359.796L535.704 369.166L519.616 377.211L535.704 385.255L530.356 394.625L515.329 384.724L516.301 402.669H505.561Z" fill="black"/>
<path d="M461.362 377.211L462.334 359.266L447.307 369.166L441.959 359.796L458.047 351.752L441.959 343.708L447.307 334.338L462.334 344.238L461.362 326.294H472.102L471.13 344.238L486.157 334.338L491.505 343.708L475.417 351.752L491.505 359.796L486.157 369.166L471.13 359.266L472.102 377.211H461.362Z" fill="black"/>
<path d="M593.958 351.752L594.931 333.807L579.903 343.708L574.555 334.338L590.643 326.293L574.555 318.249L579.903 308.879L594.931 318.78L593.958 300.835H604.699L603.726 318.78L618.754 308.879L624.102 318.249L608.014 326.293L624.102 334.338L618.754 343.708L603.726 333.807L604.699 351.752H593.958Z" fill="black"/>
<path d="M593.958 402.669L594.931 384.724L579.903 394.625L574.555 385.255L590.643 377.211L574.555 369.166L579.903 359.796L594.931 369.697L593.958 351.752H604.699L603.726 369.697L618.754 359.796L624.102 369.166L608.014 377.211L624.102 385.255L618.754 394.625L603.726 384.724L604.699 402.669H593.958Z" fill="black"/>
<path d="M549.759 377.211L550.732 359.266L535.704 369.166L530.356 359.796L546.445 351.752L530.356 343.708L535.704 334.338L550.732 344.238L549.759 326.293H560.5L559.527 344.238L574.555 334.338L579.903 343.708L563.815 351.752L579.903 359.796L574.555 369.166L559.527 359.266L560.5 377.211H549.759Z" fill="black"/>
<path d="M638.157 275.376L639.129 257.432L624.102 267.332L618.754 257.962L634.842 249.918L618.754 241.874L624.102 232.503L639.129 242.404L638.157 224.459H648.897L647.925 242.404L662.953 232.503L668.301 241.874L652.212 249.918L668.301 257.962L662.953 267.332L647.925 257.432L648.897 275.376H638.157Z" fill="black"/>
<path d="M638.157 326.294L639.129 308.349L624.102 318.249L618.754 308.879L634.842 300.835L618.754 292.791L624.102 283.421L639.129 293.321L638.157 275.376H648.897L647.925 293.321L662.953 283.421L668.301 292.791L652.212 300.835L668.301 308.879L662.953 318.249L647.925 308.349L648.897 326.294H638.157Z" fill="black"/>
<path d="M593.958 300.835L594.931 282.89L579.903 292.791L574.555 283.421L590.643 275.376L574.555 267.332L579.903 257.962L594.931 267.863L593.958 249.918H604.699L603.726 267.863L618.754 257.962L624.102 267.332L608.014 275.376L624.102 283.421L618.754 292.791L603.726 282.89L604.699 300.835H593.958Z" fill="black"/>
<path d="M638.157 428.128L639.129 410.183L624.102 420.083L618.754 410.713L634.842 402.669L618.754 394.625L624.102 385.255L639.129 395.155L638.157 377.211H648.897L647.925 395.155L662.953 385.255L668.301 394.625L652.212 402.669L668.301 410.713L662.953 420.083L647.925 410.183L648.897 428.128H638.157Z" fill="black"/>
<path d="M638.157 479.045L639.129 461.1L624.102 471.001L618.754 461.63L634.842 453.586L618.754 445.542L624.102 436.172L639.129 446.073L638.157 428.128H648.897L647.925 446.073L662.953 436.172L668.301 445.542L652.212 453.586L668.301 461.63L662.953 471.001L647.925 461.1L648.897 479.045H638.157Z" fill="black"/>
<path d="M593.958 453.586L594.931 435.642L579.903 445.542L574.555 436.172L590.643 428.128L574.555 420.083L579.903 410.713L594.931 420.614L593.958 402.669H604.699L603.726 420.614L618.754 410.713L624.102 420.083L608.014 428.128L624.102 436.172L618.754 445.542L603.726 435.642L604.699 453.586H593.958Z" fill="black"/>
<path d="M682.356 351.752L683.328 333.807L668.301 343.708L662.952 334.338L679.041 326.294L662.953 318.249L668.301 308.879L683.328 318.78L682.356 300.835H693.096L692.124 318.78L707.151 308.879L712.499 318.249L696.411 326.294L712.499 334.338L707.151 343.708L692.124 333.807L693.096 351.752H682.356Z" fill="black"/>
<path d="M682.356 402.669L683.328 384.724L668.301 394.625L662.953 385.255L679.041 377.211L662.952 369.166L668.301 359.796L683.328 369.697L682.356 351.752H693.096L692.124 369.697L707.151 359.796L712.499 369.166L696.411 377.211L712.499 385.255L707.151 394.625L692.124 384.724L693.096 402.669H682.356Z" fill="black"/>
<path d="M638.157 377.211L639.129 359.266L624.102 369.166L618.754 359.796L634.842 351.752L618.754 343.708L624.102 334.338L639.129 344.238L638.157 326.294H648.897L647.925 344.238L662.952 334.338L668.301 343.708L652.212 351.752L668.301 359.796L662.952 369.166L647.925 359.266L648.897 377.211H638.157Z" fill="black"/>
<path d="M549.759 428.128L550.732 410.183L535.704 420.084L530.356 410.714L546.445 402.669L530.356 394.625L535.704 385.255L550.732 395.155L549.759 377.211H560.5L559.527 395.155L574.555 385.255L579.903 394.625L563.815 402.669L579.903 410.713L574.555 420.083L559.527 410.183L560.5 428.128H549.759Z" fill="black"/>
<path d="M505.561 453.586L506.533 435.642L491.505 445.542L486.157 436.172L502.246 428.128L486.157 420.083L491.505 410.713L506.533 420.614L505.561 402.669H516.301L515.329 420.614L530.356 410.714L535.704 420.084L519.616 428.128L535.704 436.172L530.356 445.542L515.329 435.642L516.301 453.586H505.561Z" fill="black"/>
<path d="M549.759 479.045L550.732 461.1L535.704 471.001L530.356 461.631L546.445 453.587L530.356 445.542L535.704 436.172L550.732 446.073L549.759 428.128H560.5L559.527 446.073L574.555 436.172L579.903 445.542L563.815 453.587L579.903 461.631L574.555 471.001L559.527 461.1L560.5 479.045H549.759Z" fill="black"/>
<path d="M549.759 326.293L550.732 308.349L535.704 318.249L530.356 308.879L546.445 300.835L530.356 292.79L535.704 283.42L550.732 293.321L549.759 275.376H560.5L559.527 293.321L574.555 283.421L579.903 292.791L563.815 300.835L579.903 308.879L574.555 318.249L559.527 308.349L560.5 326.293H549.759Z" fill="black"/>
<path d="M505.561 300.835L506.533 282.89L491.505 292.791L486.157 283.421L502.246 275.377L486.157 267.332L491.505 257.962L506.533 267.863L505.56 249.918H516.301L515.328 267.863L530.356 257.962L535.704 267.332L519.616 275.377L535.704 283.42L530.356 292.79L515.328 282.89L516.301 300.835H505.561Z" fill="black"/>
<path d="M505.56 249.918L506.533 231.973L491.505 241.874L486.157 232.503L502.246 224.46L486.157 216.415L491.505 207.045L506.533 216.946L505.56 199.001H516.301L515.328 216.946L530.356 207.045L535.704 216.415L519.616 224.46L535.704 232.503L530.356 241.873L515.328 231.973L516.301 249.918H505.56Z" fill="black"/>
<path d="M417.163 249.918L418.135 231.973L403.108 241.874L397.76 232.503L413.848 224.46L397.76 216.415L403.108 207.045L418.135 216.946L417.163 199.001H427.903L426.931 216.946L441.958 207.045L447.306 216.415L431.218 224.46L447.307 232.503L441.958 241.874L426.931 231.973L427.903 249.918H417.163Z" fill="black"/>
<path d="M372.964 326.293L373.936 308.349L358.909 318.249L353.561 308.879L369.649 300.835L353.561 292.79L358.909 283.42L373.936 293.321L372.964 275.376H383.704L382.732 293.321L397.76 283.421L403.108 292.791L387.019 300.835L403.108 308.879L397.76 318.249L382.732 308.349L383.705 326.293H372.964Z" fill="black"/>
<path d="M372.964 275.376L373.936 257.431L358.909 267.332L353.561 257.961L369.649 249.917L353.561 241.873L358.909 232.503L373.936 242.404L372.964 224.459H383.704L382.732 242.404L397.76 232.503L403.108 241.874L387.019 249.917L403.108 257.962L397.76 267.332L382.732 257.431L383.704 275.376H372.964Z" fill="black"/>
<path d="M372.964 428.128L373.936 410.183L358.909 420.084L353.561 410.713L369.649 402.669L353.561 394.625L358.909 385.255L373.936 395.156L372.964 377.211H383.705L382.732 395.156L397.76 385.255L403.108 394.625L387.019 402.669L403.108 410.713L397.76 420.083L382.732 410.183L383.704 428.128H372.964Z" fill="black"/>
<path d="M372.964 479.045L373.936 461.1L358.909 471L353.561 461.63L369.649 453.586L353.561 445.542L358.909 436.172L373.936 446.072L372.964 428.128H383.704L382.732 446.072L397.76 436.172L403.108 445.542L387.019 453.586L403.108 461.63L397.76 471L382.732 461.1L383.704 479.045H372.964Z" fill="black"/>
<path d="M682.356 453.587L683.328 435.642L668.301 445.542L662.953 436.172L679.041 428.128L662.953 420.083L668.301 410.713L683.328 420.614L682.356 402.669H693.096L692.124 420.614L707.152 410.714L712.5 420.084L696.411 428.128L712.5 436.172L707.152 445.542L692.124 435.642L693.096 453.587H682.356Z" fill="black"/>
<path d="M549.759 275.376L550.732 257.432L535.704 267.332L530.356 257.962L546.445 249.918L530.356 241.873L535.704 232.503L550.732 242.404L549.759 224.46H560.5L559.527 242.404L574.555 232.504L579.903 241.874L563.815 249.918L579.903 257.962L574.555 267.332L559.527 257.432L560.5 275.376H549.759Z" fill="black"/>
<path d="M593.958 249.918L594.931 231.973L579.903 241.874L574.555 232.504L590.644 224.459L574.555 216.414L579.903 207.044L594.931 216.945L593.958 199.001H604.699L603.726 216.945L618.754 207.045L624.102 216.415L608.014 224.459L624.102 232.503L618.754 241.874L603.726 231.973L604.699 249.918H593.958Z" fill="black"/>
<path d="M682.356 300.835L683.329 282.89L668.301 292.791L662.953 283.421L679.041 275.376L662.953 267.331L668.301 257.961L683.329 267.862L682.356 249.917H693.097L692.124 267.862L707.152 257.962L712.5 267.332L696.411 275.376L712.5 283.42L707.151 292.79L692.124 282.89L693.096 300.835H682.356Z" fill="black"/>
<path d="M682.356 249.917L683.329 231.972L668.301 241.874L662.953 232.503L679.042 224.459L662.953 216.414L668.301 207.043L683.329 216.945L682.356 199H693.097L692.124 216.945L707.152 207.044L712.5 216.414L696.412 224.459L712.5 232.503L707.152 241.873L692.124 231.972L693.097 249.917H682.356Z" fill="black"/>
</svg>
